<?xml version="1.0" standalone="no"?>
<!DOCTYPE svg PUBLIC "-//W3C//DTD SVG 20010904//EN"
 "http://www.w3.org/TR/2001/REC-SVG-20010904/DTD/svg10.dtd">
<svg version="1.0" xmlns="http://www.w3.org/2000/svg"
 width="1128.000000pt" height="1128.000000pt" viewBox="0 0 1128.000000 1128.000000"
 preserveAspectRatio="xMidYMid meet">
<metadata>
Created by potrace 1.14, written by Peter Selinger 2001-2017
</metadata>
<g transform="translate(0.000000,1128.000000) scale(0.100000,-0.100000)"
fill="#000000" stroke="none">
<path d="M8586 8493 c-1 -2 -33 -5 -72 -8 -129 -10 -212 -21 -339 -45 -27 -5
-61 -12 -75 -14 -85 -16 -348 -95 -415 -125 -11 -5 -45 -19 -75 -31 -67 -27
-203 -92 -210 -101 -3 -3 -13 -8 -23 -12 -36 -13 -213 -132 -304 -204 -98 -78
-252 -226 -299 -289 -16 -22 -32 -41 -35 -44 -10 -8 -109 -141 -109 -146 0 -3
-11 -20 -25 -38 -14 -18 -25 -38 -25 -44 0 -7 -4 -12 -8 -12 -4 0 -15 -15 -24
-32 -8 -18 -33 -67 -55 -108 -39 -74 -117 -261 -129 -305 -1 -5 -9 -30 -17
-55 -9 -25 -21 -65 -27 -90 -12 -44 -15 -57 -26 -110 -3 -14 -7 -32 -9 -40 -2
-8 -4 -15 -5 -15 -1 0 -3 -11 -6 -25 -2 -14 -7 -41 -10 -60 -4 -19 -8 -42 -9
-50 -1 -8 -5 -40 -10 -70 -8 -61 -10 -82 -21 -225 -8 -112 -12 -3414 -4 -3416
18 -4 1753 -3 1759 1 4 3 7 736 7 1630 0 1457 3 1725 18 1795 46 209 100 321
207 427 102 101 224 156 386 175 101 12 303 7 333 -8 9 -4 29 -9 45 -12 17 -2
39 -7 50 -11 64 -24 102 -41 116 -53 8 -7 20 -13 26 -13 10 0 118 -101 143
-135 23 -32 85 -161 96 -200 43 -163 41 -155 51 -249 4 -39 7 -808 7 -1709 1
-1449 3 -1637 16 -1638 8 -1 405 -2 883 -3 764 -1 867 1 868 14 0 8 1 755 1
1660 1 1436 -2 1729 -16 1875 -14 143 -21 193 -36 265 -6 30 -13 66 -15 80 -2
19 -25 116 -34 148 -1 3 -3 10 -5 20 -5 20 -38 129 -43 142 -3 8 -7 20 -8 25
-2 6 -20 52 -40 104 -96 237 -239 469 -405 654 -74 83 -200 201 -254 237 -20
14 -36 28 -36 33 0 4 -6 7 -14 7 -8 0 -16 4 -18 9 -7 20 -314 201 -348 206 -3
0 -14 6 -25 12 -34 19 -263 100 -355 126 -60 17 -78 21 -220 50 -90 19 -191
32 -325 43 -69 6 -444 11 -449 7z"/>
<path d="M40 8437 c0 -4 -4 -5 -10 -2 -6 4 -10 -6 -11 -22 0 -37 0 -5603 0
-5623 1 -13 105 -15 879 -15 482 0 882 3 887 7 7 4 10 495 10 1442 0 790 2
1436 5 1435 5 0 132 -195 139 -213 2 -6 7 -13 11 -16 11 -9 120 -180 120 -190
0 -4 3 -10 7 -12 9 -4 53 -65 53 -73 0 -3 5 -11 11 -18 5 -7 29 -41 51 -77 23
-36 68 -104 100 -152 32 -49 58 -90 58 -93 0 -3 5 -11 11 -18 10 -11 123 -183
259 -397 34 -52 101 -156 151 -230 49 -74 92 -142 96 -150 4 -8 9 -17 13 -20
3 -3 21 -31 40 -62 19 -32 38 -58 42 -58 4 0 8 -4 8 -10 0 -8 36 -66 235 -370
34 -52 74 -115 90 -140 15 -25 31 -47 34 -50 3 -3 15 -22 26 -42 11 -21 22
-38 25 -38 3 0 16 -20 30 -45 14 -25 28 -45 32 -45 5 0 8 -4 8 -10 0 -12 208
-332 224 -345 9 -7 317 -9 887 -9 481 1 877 2 882 3 4 1 7 1274 7 2830 l0
2829 -47 4 c-27 2 -50 0 -51 -4 -2 -5 -8 -6 -13 -2 -8 4 -53 5 -174 2 -5 0
-25 2 -43 5 -18 2 -35 1 -37 -3 -3 -5 -17 -5 -31 -1 -15 4 -50 4 -80 1 -29 -3
-63 -2 -75 2 -12 5 -26 5 -31 0 -5 -5 -26 -6 -46 -3 -20 3 -59 4 -87 1 -27 -3
-61 -2 -75 3 -16 5 -26 4 -28 -2 -2 -6 -8 -9 -12 -6 -12 7 -219 9 -226 2 -3
-2 -21 -1 -40 3 -19 5 -37 4 -40 -1 -3 -5 -9 -7 -14 -4 -12 8 -169 9 -176 2
-3 -3 -17 -2 -31 2 -14 4 -49 4 -79 1 -29 -3 -63 -2 -75 2 -12 5 -26 5 -31 0
-5 -5 -26 -6 -46 -3 -20 3 -59 4 -87 1 -27 -3 -60 -2 -72 2 -12 4 -24 4 -26 0
-2 -4 -3 -643 -3 -1420 1 -778 -2 -1416 -7 -1419 -4 -2 -7 2 -7 11 0 8 -3 16
-7 18 -11 5 -183 266 -183 278 0 5 -3 10 -7 10 -5 0 -21 21 -38 48 -16 26
-161 246 -322 490 -161 244 -293 447 -293 452 0 4 -4 10 -8 12 -5 2 -39 50
-77 108 -37 58 -75 116 -84 129 -9 13 -20 31 -26 40 -5 9 -12 18 -16 21 -3 3
-16 23 -29 45 -13 22 -29 45 -35 51 -5 6 -19 27 -30 47 -11 20 -23 37 -27 37
-5 0 -8 5 -8 11 0 5 -20 39 -45 75 -25 35 -45 66 -45 69 0 3 -5 11 -11 18 -6
7 -98 145 -204 307 -107 162 -198 300 -202 305 -4 6 -44 65 -88 132 l-80 122
-45 0 c-25 1 -76 2 -113 2 -37 1 -70 -1 -73 -4 -3 -3 -17 -2 -31 2 -14 4 -49
4 -79 1 -29 -3 -63 -2 -75 2 -12 5 -26 5 -31 0 -5 -5 -26 -6 -46 -3 -20 3 -59
4 -87 1 -27 -3 -61 -2 -75 3 -16 5 -26 4 -28 -2 -2 -6 -8 -9 -12 -6 -12 7
-219 9 -226 2 -3 -2 -21 -1 -40 3 -19 5 -37 4 -40 -1 -3 -5 -9 -7 -14 -4 -12
8 -169 9 -176 2 -3 -3 -17 -2 -31 2 -14 4 -49 4 -79 1 -29 -3 -63 -2 -75 2
-12 5 -26 5 -31 0 -5 -5 -26 -6 -46 -3 -20 3 -59 4 -87 1 -27 -3 -61 -2 -75 3
-13 4 -26 4 -27 0 -2 -5 -28 -6 -58 -3 -30 3 -55 2 -55 -3z"/>
</g>
</svg>
